<svg version="1.1" id="Layer_1" xmlns="http://www.w3.org/2000/svg" xmlns:xlink="http://www.w3.org/1999/xlink" x="0px" y="0px"
	 width="100%" viewBox="0 0 638 636" enable-background="new 0 0 638 636" xml:space="preserve">
<path fill="#F9F9F9" opacity="1.000000" stroke="none" 
	d="
M364.000000,637.000000 
	C242.666687,637.000000 121.833374,637.000000 1.000049,637.000000 
	C1.000032,425.000061 1.000032,213.000122 1.000016,1.000134 
	C213.666565,1.000089 426.333130,1.000089 638.999756,1.000045 
	C638.999878,212.999863 638.999878,424.999725 638.999939,636.999756 
	C547.500000,637.000000 456.000000,637.000000 364.000000,637.000000 
M506.500000,13.000529 
	C457.849487,13.000684 409.198944,12.997348 360.548431,13.008314 
	C357.050476,13.009103 353.539978,12.943984 350.056793,13.200817 
	C335.817993,14.250710 327.192963,22.922056 326.189819,37.160496 
	C325.967682,40.313457 326.008606,43.488285 326.008240,46.653049 
	C325.999359,124.127464 325.999512,201.601883 326.007538,279.076294 
	C326.007874,282.241180 325.971619,285.414307 326.172455,288.569580 
	C327.094482,303.055817 335.830475,311.843811 350.283844,312.818146 
	C353.437866,313.030731 356.611877,312.991760 359.776703,312.992126 
	C437.251129,313.000610 514.725525,313.000580 592.199951,312.992157 
	C595.364807,312.991791 598.539001,313.033295 601.692871,312.818848 
	C616.174744,311.834198 624.877441,303.095428 625.825378,288.590942 
	C626.031555,285.436249 625.992126,282.262665 625.992493,279.097778 
	C626.000610,201.623367 626.009094,124.148941 625.971313,46.674553 
	C625.969177,42.355888 625.922180,37.984978 625.287781,33.729061 
	C623.630493,22.611444 616.462830,15.416050 605.414856,13.737574 
	C601.324341,13.116116 597.123108,13.040123 592.971741,13.031763 
	C564.481262,12.974382 535.990601,13.000975 506.500000,13.000529 
M455.500000,620.999573 
	C502.980865,620.987488 550.462036,621.064941 597.942505,620.918640 
	C616.534851,620.861267 625.883057,611.696350 625.908447,593.331665 
	C626.021240,511.698151 626.021240,430.064301 625.901001,348.430817 
	C625.874756,330.580231 616.483154,321.130829 598.704346,321.103973 
	C516.904297,320.980469 435.103851,320.980530 353.303802,321.103729 
	C335.512421,321.130524 326.333252,330.564636 326.079803,348.420197 
	C325.895386,361.412506 326.001434,374.409088 326.003052,387.403778 
	C326.011597,456.042755 325.956024,524.681885 326.090057,593.320618 
	C326.125610,611.521851 335.409607,620.580872 353.540924,620.952209 
	C355.539520,620.993103 357.539062,620.996582 359.538177,620.996765 
	C391.192108,620.999695 422.846069,620.999207 455.500000,620.999573 
M203.500000,321.000702 
	C152.353653,321.000946 101.207298,320.998138 50.060947,321.008575 
	C46.729801,321.009247 43.385761,320.942352 40.069775,321.195618 
	C25.792105,322.286102 17.249134,330.874969 16.183884,345.164581 
	C15.973686,347.984253 16.009365,350.825653 16.009062,353.657043 
	C16.000673,431.792511 16.000807,509.928009 16.008348,588.063477 
	C16.008623,590.894958 15.977743,593.734558 16.166355,596.556641 
	C17.136932,611.078796 25.795935,619.795532 40.288807,620.822266 
	C43.275471,621.033752 46.283245,620.991516 49.281292,620.991821 
	C127.083565,621.000061 204.885834,620.999939 282.688110,620.991882 
	C285.686157,620.991577 288.693787,621.033691 291.680664,620.824097 
	C306.185120,619.806213 314.846069,611.108765 315.831726,596.586731 
	C316.023224,593.764954 315.991333,590.925110 315.991608,588.093628 
	C315.999237,509.958160 315.998932,431.822693 315.992096,353.687225 
	C315.991882,351.022186 316.012024,348.351013 315.850586,345.693115 
	C314.954712,330.941986 306.178223,322.105225 291.462006,321.162079 
	C288.473145,320.970459 285.467072,321.009155 282.468872,321.007874 
	C256.479248,320.996887 230.489624,321.001038 203.500000,321.000702 
M177.312515,158.946274 
	C181.675278,140.805237 186.038040,122.664200 190.468521,104.241516 
	C182.176086,104.241516 174.711121,104.241516 166.896408,104.241516 
	C162.470505,124.015823 158.055237,143.742630 153.639954,163.469452 
	C153.263260,163.441895 152.886566,163.414337 152.509857,163.386780 
	C147.552902,143.681992 142.595932,123.977211 137.665359,104.377335 
	C130.131165,104.377335 123.043831,104.377335 115.719269,104.377335 
	C110.643349,124.379501 105.616356,144.188858 100.589363,163.998230 
	C100.255600,164.001053 99.921844,164.003876 99.588081,164.006699 
	C95.419235,144.092636 91.250389,124.178566 87.080086,104.257538 
	C77.920937,104.257538 69.118896,104.257538 59.897476,104.257538 
	C67.598892,136.605667 75.243980,168.717239 82.872520,200.759277 
	C92.181175,200.759277 101.120872,200.759277 110.309494,200.759277 
	C115.250923,181.176315 120.156281,161.736282 125.061646,142.296234 
	C125.346786,142.334488 125.631935,142.372726 125.917076,142.410965 
	C130.641434,161.895325 135.365784,181.379684 140.045883,200.681549 
	C149.385895,200.681549 158.308594,200.681549 167.401749,200.681549 
	C170.679642,186.878113 173.900345,173.315460 177.312515,158.946274 
M199.594727,127.199005 
	C193.784897,142.333359 193.744171,157.758743 197.723495,173.236847 
	C199.700409,180.926376 203.465271,187.883194 210.042465,192.637604 
	C227.927460,205.565964 247.310577,204.420578 267.077942,198.050674 
	C267.967163,197.764145 269.002411,196.245453 269.036102,195.268448 
	C269.225098,189.792862 269.127136,184.307373 269.127136,178.648987 
	C264.975769,179.572159 261.161316,180.699905 257.266022,181.209991 
	C253.168655,181.746536 248.975449,182.044159 244.856491,181.828354 
	C233.703461,181.244003 226.571274,174.801300 225.109528,163.733032 
	C224.351608,157.994064 224.008438,152.108536 224.329041,146.336487 
	C225.221176,130.275055 233.266541,122.757637 249.277573,123.159523 
	C255.476959,123.315140 261.645477,124.700684 268.124115,125.565437 
	C268.124115,120.785652 267.814087,115.783905 268.226013,110.842354 
	C268.534058,107.147049 266.892883,105.363640 263.748505,105.096146 
	C254.018143,104.268341 244.164062,102.558540 234.539169,103.361786 
	C219.190613,104.642700 206.562515,111.478096 199.594727,127.199005 
z"/>
<path fill="#EA0000" opacity="1.000000" stroke="none" 
	d="
M507.000000,13.000529 
	C535.990601,13.000975 564.481262,12.974382 592.971741,13.031763 
	C597.123108,13.040123 601.324341,13.116116 605.414856,13.737574 
	C616.462830,15.416050 623.630493,22.611444 625.287781,33.729061 
	C625.922180,37.984978 625.969177,42.355888 625.971313,46.674553 
	C626.009094,124.148941 626.000610,201.623367 625.992493,279.097778 
	C625.992126,282.262665 626.031555,285.436249 625.825378,288.590942 
	C624.877441,303.095428 616.174744,311.834198 601.692871,312.818848 
	C598.539001,313.033295 595.364807,312.991791 592.199951,312.992157 
	C514.725525,313.000580 437.251129,313.000610 359.776703,312.992126 
	C356.611877,312.991760 353.437866,313.030731 350.283844,312.818146 
	C335.830475,311.843811 327.094482,303.055817 326.172455,288.569580 
	C325.971619,285.414307 326.007874,282.241180 326.007538,279.076294 
	C325.999512,201.601883 325.999359,124.127464 326.008240,46.653049 
	C326.008606,43.488285 325.967682,40.313457 326.189819,37.160496 
	C327.192963,22.922056 335.817993,14.250710 350.056793,13.200817 
	C353.539978,12.943984 357.050476,13.009103 360.548431,13.008314 
	C409.198944,12.997348 457.849487,13.000684 507.000000,13.000529 
z"/>
<path fill="#2664E9" opacity="1.000000" stroke="none" 
	d="
M455.000000,620.999573 
	C422.846069,620.999207 391.192108,620.999695 359.538177,620.996765 
	C357.539062,620.996582 355.539520,620.993103 353.540924,620.952209 
	C335.409607,620.580872 326.125610,611.521851 326.090057,593.320618 
	C325.956024,524.681885 326.011597,456.042755 326.003052,387.403778 
	C326.001434,374.409088 325.895386,361.412506 326.079803,348.420197 
	C326.333252,330.564636 335.512421,321.130524 353.303802,321.103729 
	C435.103851,320.980530 516.904297,320.980469 598.704346,321.103973 
	C616.483154,321.130829 625.874756,330.580231 625.901001,348.430817 
	C626.021240,430.064301 626.021240,511.698151 625.908447,593.331665 
	C625.883057,611.696350 616.534851,620.861267 597.942505,620.918640 
	C550.462036,621.064941 502.980865,620.987488 455.000000,620.999573 
z"/>
<path fill="#50A736" opacity="1.000000" stroke="none" 
	d="
M204.000000,321.000702 
	C230.489624,321.001038 256.479248,320.996887 282.468872,321.007874 
	C285.467072,321.009155 288.473145,320.970459 291.462006,321.162079 
	C306.178223,322.105225 314.954712,330.941986 315.850586,345.693115 
	C316.012024,348.351013 315.991882,351.022186 315.992096,353.687225 
	C315.998932,431.822693 315.999237,509.958160 315.991608,588.093628 
	C315.991333,590.925110 316.023224,593.764954 315.831726,596.586731 
	C314.846069,611.108765 306.185120,619.806213 291.680664,620.824097 
	C288.693787,621.033691 285.686157,620.991577 282.688110,620.991882 
	C204.885834,620.999939 127.083565,621.000061 49.281292,620.991821 
	C46.283245,620.991516 43.275471,621.033752 40.288807,620.822266 
	C25.795935,619.795532 17.136932,611.078796 16.166355,596.556641 
	C15.977743,593.734558 16.008623,590.894958 16.008348,588.063477 
	C16.000807,509.928009 16.000673,431.792511 16.009062,353.657043 
	C16.009365,350.825653 15.973686,347.984253 16.183884,345.164581 
	C17.249134,330.874969 25.792105,322.286102 40.069775,321.195618 
	C43.385761,320.942352 46.729801,321.009247 50.060947,321.008575 
	C101.207298,320.998138 152.353653,321.000946 204.000000,321.000702 
z"/>
<path fill="#030303" opacity="1.000000" stroke="none" 
	d="
M177.216797,159.349548 
	C173.900345,173.315460 170.679642,186.878113 167.401749,200.681549 
	C158.308594,200.681549 149.385895,200.681549 140.045883,200.681549 
	C135.365784,181.379684 130.641434,161.895325 125.917076,142.410965 
	C125.631935,142.372726 125.346786,142.334488 125.061646,142.296234 
	C120.156281,161.736282 115.250923,181.176315 110.309494,200.759277 
	C101.120872,200.759277 92.181175,200.759277 82.872520,200.759277 
	C75.243980,168.717239 67.598892,136.605667 59.897476,104.257538 
	C69.118896,104.257538 77.920937,104.257538 87.080086,104.257538 
	C91.250389,124.178566 95.419235,144.092636 99.588081,164.006699 
	C99.921844,164.003876 100.255600,164.001053 100.589363,163.998230 
	C105.616356,144.188858 110.643349,124.379501 115.719269,104.377335 
	C123.043831,104.377335 130.131165,104.377335 137.665359,104.377335 
	C142.595932,123.977211 147.552902,143.681992 152.509857,163.386780 
	C152.886566,163.414337 153.263260,163.441895 153.639954,163.469452 
	C158.055237,143.742630 162.470505,124.015823 166.896408,104.241516 
	C174.711121,104.241516 182.176086,104.241516 190.468521,104.241516 
	C186.038040,122.664200 181.675278,140.805237 177.216797,159.349548 
z"/>
<path fill="#020202" opacity="1.000000" stroke="none" 
	d="
M199.753601,126.850433 
	C206.562515,111.478096 219.190613,104.642700 234.539169,103.361786 
	C244.164062,102.558540 254.018143,104.268341 263.748505,105.096146 
	C266.892883,105.363640 268.534058,107.147049 268.226013,110.842354 
	C267.814087,115.783905 268.124115,120.785652 268.124115,125.565437 
	C261.645477,124.700684 255.476959,123.315140 249.277573,123.159523 
	C233.266541,122.757637 225.221176,130.275055 224.329041,146.336487 
	C224.008438,152.108536 224.351608,157.994064 225.109528,163.733032 
	C226.571274,174.801300 233.703461,181.244003 244.856491,181.828354 
	C248.975449,182.044159 253.168655,181.746536 257.266022,181.209991 
	C261.161316,180.699905 264.975769,179.572159 269.127136,178.648987 
	C269.127136,184.307373 269.225098,189.792862 269.036102,195.268448 
	C269.002411,196.245453 267.967163,197.764145 267.077942,198.050674 
	C247.310577,204.420578 227.927460,205.565964 210.042465,192.637604 
	C203.465271,187.883194 199.700409,180.926376 197.723495,173.236847 
	C193.744171,157.758743 193.784897,142.333359 199.753601,126.850433 
z"/>
</svg>